<svg version="1.0" xmlns="http://www.w3.org/2000/svg" width="2000" height="1048" viewBox="0 0 1500 786"><path d="M684.4 41.9c-37.3 20.7-158.8 88.2-270 149.9L212.3 304H122l-.2 25.2-.3 25.3L94 369.7c-59.5 33-85.8 47.8-85.4 48.3.3.2 25.8 12.9 56.7 28.1l56.2 27.8.3 11 .3 11 23.2.3 23.2.4 54 26.8c29.7 14.7 98.1 48.5 152 75.1C428.4 625 534.8 677.5 611 715l138.5 68.2 9.5-5c5.2-2.7 41.9-22 81.5-42.7 39.6-20.8 102.2-53.6 139-73 36.9-19.4 104.1-54.7 149.5-78.5 45.4-23.8 101.4-53.2 124.5-65.4l42-22.1 44.2-.3 44.3-.3.2-23 .3-23 54.3-28.6c29.8-15.8 53.9-29 53.5-29.4-.4-.3-21.3-11.4-46.3-24.4-25-13.1-49.2-25.7-53.7-28.2l-8.3-4.4v-30.8l-30.2-.3-30.3-.3-51-26.9c-28-14.8-102.3-53.7-165-86.6C1044.8 157.2 942 103.3 879 70.3S761.8 8.9 758.4 7.2l-6-3-68 37.7zm173.3 35.5c190.3 99.7 330.3 173 381 199.7l50.3 26.4-518.2.3c-522.8.2-522.5.2-519-2.9 2-1.9 499.5-277.8 500.9-277.9.6 0 47.9 24.5 105 54.4zm202.8 256.2c13.6 3.2 29.4 13.7 37.9 25.3 11.3 15.4 15.9 35.7 12.2 54.1-5.2 25.9-24.5 46.7-49.2 53-9.4 2.4-23.5 2.6-31.9.5-18.6-4.7-36.4-19-44.3-35.5-5.3-10.9-7.4-20.1-7.4-31.5.1-18.8 6.5-33.8 20.2-47.6 17.6-17.7 38.8-23.9 62.5-18.3zm-830.3-.1c24.2 6.3 43 25.2 49.4 49.5 2.2 8.6 2.2 24.3 0 33.5-5.9 24.4-25.8 44.3-49.9 50-8 1.9-22.5 1.9-30.7-.1-23.4-5.4-43.2-25.2-49.6-49.4-2.3-8.8-2.4-25.4-.1-34 6.4-23.7 25.5-43.2 48.7-49.4 7.4-2 24.6-2 32.2-.1zm91.2 2.6c1.4 1.1 8.5 9.8 15.8 19.2 7.2 9.5 18.1 23.6 24.2 31.5l11.1 14.3.5-31.9c.4-25 .8-32.3 1.9-33.5 2-2.5 28.6-2.5 31.3 0 1.7 1.5 1.8 4.8 1.8 64.4 0 55.7-.2 62.9-1.6 64.3-1.2 1.3-3.9 1.6-13.2 1.6-7.4-.1-12.5-.5-13.9-1.3-2.1-1.2-10.9-12.2-39.8-50-6.6-8.6-12.2-15.6-12.5-15.7-.3 0-.4 12-.2 26.7.3 29.2-.2 36.5-2.4 38.8-2.2 2.1-28.1 2.2-31 .1-1.8-1.4-1.9-3.2-1.9-64.6 0-61.4.1-63.2 1.9-64.6 1.5-1 5.2-1.4 13.7-1.4 10.3 0 11.9.2 14.3 2.1zm243.9-.7c2.8 2.9 3.2 28.9.4 32.3-.7 1-5.5 1.3-17.6 1.3-11.7 0-17.1.4-17.9 1.2-.9.9-1.2 12.7-1.2 46.9v45.8l-2.2 1.5c-1.8 1.3-5.2 1.6-15.9 1.6-11.9 0-13.8-.2-15.2-1.8-1.5-1.6-1.7-6.8-1.9-48.3l-.3-46.4-18-.5c-21.7-.6-20.6.3-20.3-16.5.1-11.6 1-16.4 3-17.6.7-.5 24.8-.9 53.5-.9 44 0 52.3.2 53.6 1.4zm43 .4c1.4 1.5 1.6 5 1.7 23.8.1 12.1.5 22.6.9 23.2.6.9 6.4 1.2 23.2 1l22.4-.3.5-23.1c.4-17.5.8-23.5 1.9-24.7 2-2.5 28.6-2.5 31.3 0 1.7 1.5 1.8 4.8 1.8 64.1 0 56.8-.2 62.7-1.7 64.4-1.4 1.6-3.3 1.8-15.5 1.8-19.1 0-17.8 1.9-17.8-26v-22h-22.9c-18.3 0-23 .3-23.4 1.4-.3.7-.5 10.6-.5 22 .1 26.4 1.3 24.6-17.2 24.6-10.2 0-14.1-.4-15.6-1.4-1.8-1.4-1.9-3.2-1.9-64.6 0-61.4.1-63.2 1.9-64.6 1.5-1 5.4-1.4 15.6-1.4 11.9 0 13.9.2 15.3 1.8zm195.5-.2c2.1 1.4 2.2 2.2 2.2 15.7 0 7.8-.5 14.9-1 15.7-.8 1.3-5.8 1.6-31.2 2l-30.3.5-.5 4.5c-.3 2.5-.3 5.7-.1 7.2l.3 2.8h22.3c26.8 0 28.1.3 28.9 6.8.9 6.9.6 20.3-.6 23.4-.5 1.4-1.9 2.9-3.1 3.2-1.2.3-12.5.6-25 .6h-22.8l.3 6.2.3 6.3 29.5.2c36.1.3 33-1.3 33 17.9 0 12.1-.2 13.6-2 15.4-1.9 1.9-3.3 2-47.2 2-40.6 0-45.3-.2-47-1.7-1.7-1.5-1.8-4.8-1.8-64.1 0-56.8.2-62.7 1.7-64.4 1.5-1.7 4.3-1.8 46.7-1.8 39.3 0 45.4.2 47.4 1.6zm138.7 1.2c18.4 6.9 28.2 21.2 29.3 42.7.9 19.3-5.7 34.2-19.6 44.5l-3.4 2.5 8.8 12.5c10.9 15.5 15.4 22.8 15.4 25.2 0 1.7-1.3 1.8-17.7 1.8-12.3 0-18.6-.4-20.3-1.3-1.4-.7-7-7.9-12.6-16.1-5.6-8.2-11-15.5-12-16.3-2.1-1.5-7.2-1.7-10.8-.3l-2.6 1v14.9c0 18.9.8 18.1-17.5 18.1-9.8 0-13.6-.4-15.1-1.4-1.8-1.4-1.9-3.4-2.2-63.7-.2-55.3-.1-62.4 1.3-64.6l1.6-2.4 35.7.3c34 .4 36 .5 41.7 2.6zm245.2-1c2.5 1.9 48.9 120.6 49.5 126.4l.3 3.3h-17.1c-17.1 0-17.2 0-19.2-2.5-1.1-1.4-2.6-4.3-3.2-6.5-.7-2.2-1.9-5.2-2.6-6.8l-1.5-2.7H1172c-24.8 0-23.8-.3-26.5 8.2-1 2.9-2.9 6.5-4.3 8-2.5 2.8-2.7 2.8-15.1 2.8-14.2 0-20.1-.7-20.7-2.5-.8-1.9 47.2-124.4 49.7-127.1 2.2-2.3 2.8-2.4 16.3-2.4 11.8 0 14.5.3 16.3 1.8zm129.8-.3c17.4 3.7 30.7 14 38.4 29.7 6.1 12.4 7.5 19 7.5 34.8 0 15.7-1.4 22.5-7.3 34.5-6.9 14-18.1 23.8-33.1 28.7-6 2-9 2.2-39.8 2.6-29.3.3-33.6.2-35.8-1.2l-2.4-1.6v-62.7c0-56.9.2-62.8 1.7-64.5 1.5-1.7 3.8-1.8 32.7-1.8 23.6 0 32.8.4 38.1 1.5zm97.9 34.1c39 20.3 42.9 22.5 41.9 23.4-.4.4-15.2 8.3-32.8 17.5-17.6 9.2-33.9 17.8-36.2 19.2l-4.3 2.4v-38c0-37.4.1-38.5 2.9-39 .3-.1 13.1 6.5 28.5 14.5zM122 414.4v41.5l-35.7-17.6c-19.7-9.6-36.8-18-38.1-18.6-5.4-2.5-3-4.3 35.3-25.8 20.4-11.4 37.3-20.8 37.8-20.8.4-.1.7 18.6.7 41.3zm1039.2 83.4c3.2 1.1 5 1 11-.2 5.7-1.1 16-1.5 47.1-1.5 21.8 0 39.7.3 39.7.7 0 .4-18.8 10.6-41.8 22.6-22.9 12.1-89.6 47.1-148.2 77.9-58.6 30.7-154.5 81-213.1 111.8l-106.6 56-70.9-34.9C639.4 711 576.2 679.9 538 661c-38.2-18.8-111.8-55.1-163.5-80.5-131.4-64.7-163-80.5-162.9-81.6.1-.5.2-1.3.3-1.7 0-.5 212.8-.8 472.9-.8 383.8.1 473.4.3 476.4 1.4z"/><path d="M730.8 301.7c.7.3 1.6.2 1.9-.1.4-.3-.2-.6-1.3-.5-1.1 0-1.4.3-.6.6zm301.7 65.7c-8.8 3.7-16.7 12.3-19.5 21.2-2.5 8.4-2.5 14.4.1 22.9 1.7 5.7 3.1 7.8 8.2 13 8.1 8.2 14.9 10.9 25.4 10.3 18.4-1.2 31.5-15.6 31.5-34.8 0-19.5-13.2-33.8-32.1-34.7-6.4-.3-8.6 0-13.6 2.1zm-828.1-1c-9.6 3.1-17.6 11.1-21.5 21.6-2.9 7.8-2.4 19.3 1.3 27.2 11.9 25.7 47 26.5 59.8 1.3 3.3-6.4 3.5-7.4 3.5-16.4 0-8.3-.4-10.4-2.6-15.2-5.9-12.5-15.5-19-28.8-19.6-4.5-.2-9.2.3-11.7 1.1zm696.5-.7c-4.3.4-4.7.7-5.3 3.5-1.1 5.7-.7 28.3.6 29.6.8.8 6 1.2 16.8 1.2 13.2 0 16-.3 19-1.9 10.6-5.6 10.6-25.1 0-30.6-3.1-1.6-22.1-2.7-31.1-1.8zm268.1 18.9c-6.6 17.6-10.1 28.6-9.6 29.9.4 1.2 2.8 1.5 12.6 1.5 11 0 12-.2 12-1.8 0-2.1-9.3-28.9-11.4-32.9l-1.3-2.6-2.3 5.9zm111.3-16.6l-2.3.9v31c0 30.9 0 31 2.2 32.2 3.1 1.7 28.2.6 32.9-1.4 7.6-3.1 14.5-11.8 16.4-20.5.9-4.4.9-16 0-20.2-2-9.3-9.5-18.3-17.2-20.9-4.8-1.6-29.1-2.4-32-1.1zm-446 164c-1.7.4-5.3 2-7.9 3.5-3.5 2-4.9 2.5-5.2 1.5-1.9-5.5-9.8-6.6-17.6-2.5-5.4 2.9-7.3 3-10 1-1.1-.8-2.7-1.5-3.6-1.5-1.8 0-2.2.7-8.6 15.8C775 565 765.1 578 759.9 578c-1.5 0-1.9-.7-1.9-3.2 0-2.8 5.4-17.7 11.7-32.1 3.3-7.7 2.2-9-4.7-5.7l-5.1 2.4-3.5-3.7c-3.2-3.2-4.2-3.7-8.4-3.7-8.4 0-16.2 7.5-21.5 20.7-3.2 8.1-7.5 14.5-13.4 20.1-4.7 4.4-9.9 7.7-10.7 6.9-.3-.3 1.1-4.5 3.2-9.3 2-4.9 4.6-11.6 5.9-14.9 1.3-3.3 3.5-8.6 4.9-11.8 4.2-9.4 3.7-10.1-4.6-6.5l-5.1 2.2-2.2-2.6c-1.2-1.4-3.1-3.1-4.3-3.7-5.1-2.7-13.6 0-18.6 6-6.6 7.9-12.6 24.2-12.6 34.6 0 5.8.3 6.7 2.9 9.4 3.3 3.3 7.8 3.8 12.4 1.4 2.6-1.3 2.8-1.3 2.5.3-.2 1-3.9 3.5-9.3 6.2-9.3 4.7-13.5 8.9-13.5 13.6 0 8.2 8.7 12.7 17.3 9 4.9-2.1 9.2-7.3 13.1-15.7 3.3-7.3 3.7-7.8 10.3-11.4 3.7-2.1 8.9-5.8 11.4-8.2 4.8-4.5 5.9-4.3 5.9.8 0 1.1 1.2 3.1 2.8 4.5 2.3 2.3 3.4 2.5 7.8 2.2 3.6-.3 6.1-1.3 8.8-3.3l3.7-2.8 3.2 3.1c4.2 4.1 10.1 4.4 16.5.7 4-2.3 4.2-2.3 4.2-.4 0 1.6.7 1.9 4.9 1.9 2.7 0 5.3-.6 5.9-1.3.5-.6 3.7-8 7-16.2 3.3-8.3 6.5-16.2 7.2-17.6 1.3-2.9 8.4-7.9 11.2-7.9 4.3 0 3.7 2.1-7.6 29.4-2.4 5.9-4.2 11.4-3.9 12.2.7 1.8 9.6 1.9 11.1.1.5-.6 3.3-7.1 6.1-14.2 8.1-20.6 8.9-21.9 13.4-24.9 2.3-1.5 5.1-2.5 6.2-2.4 2.9.4 2.3 4.2-2.6 16.1-3.4 8.4-4.2 11.4-4.3 17-.1 6.1.2 7.1 2.3 8.8 3.1 2.5 10 2.5 14.9 0 2.1-1.1 5.7-4 8-6.5s4.5-4.6 4.7-4.6c.3 0 .5 1.1.5 2.4 0 3.5 4.5 8.4 8.8 9.6 14 3.8 29-3 38.9-17.7 3.8-5.7 4-8.6.7-9.1-1.6-.2-3.1 1-5.9 4.8-9.4 12.8-23.5 18.9-29.3 12.7-2.4-2.5-3-8.1-1.1-9.3.7-.4 4.5-1 8.5-1.4 9.5-.9 14.3-4 18-11.2 6.2-12.3 1.3-21.8-11.4-21.8-9.1 0-17.9 7.8-24.3 21.5-6.2 13.5-16.5 25.6-20.4 24.1-2.5-.9-1.7-5.1 4-19.7 5.5-14.2 6.6-20 4.3-23.2-1.7-2.3-6.6-3.5-10.5-2.7zm2.7 8c0 .5-.4 1-1 1-.5 0-1-.5-1-1 0-.6.5-1 1-1 .6 0 1 .4 1 1zm-23 1c0 .5-.4 1-1 1-.5 0-1-.5-1-1 0-.6.5-1 1-1 .6 0 1 .4 1 1zm2.6 2.4c.2 1.4 0 2.6-.6 2.6-.5 0-1-1.4-1-3.2 0-3.6.9-3.3 1.6.6zm-63.5.7c2.3 2.3 2.3 2.4-2.9 15.7-2.7 7-4.5 10.2-7.4 12.8-7.4 6.7-11.1 3.3-8.3-7.5 3.4-12.8 10.1-22.6 15.8-23 .4-.1 1.6.8 2.8 2zm130.6-.6c.9 2.5-2.6 10.3-5.7 12.5-1.5 1.1-4.2 2-5.9 2-4.1 0-4.1-2.3.2-8.6 4.3-6.5 10-9.4 11.4-5.9zm-182.6 1.9c1.9 4.1-5.7 22.5-11.4 27.7-3.7 3.4-7.2 3.7-8.7.9-2.2-4.1 4-21.3 10-27.8 3.7-4.1 8.5-4.4 10.1-.8zm113.9 4.2c0 .8-.4 1.4-1 1.4-.5 0-1-.9-1-2.1 0-1.1.5-1.7 1-1.4.6.3 1 1.3 1 2.1zM695.5 581c.3.5.1 1-.4 1-.6 0-1.1-.5-1.1-1 0-.6.2-1 .4-1 .3 0 .8.4 1.1 1zm-2.1 4.7c-.5.5-1.2 1.2-1.6 1.8-.4.6-.8.2-.8-.8 0-.9.7-1.7 1.7-1.7.9 0 1.2.3.7.7zM682 597.2c0 2-4.3 7.6-6.7 8.7-1.6.7-2.4.6-3.2-.3-1.7-2-.3-4.4 4.3-7.1 4.6-2.8 5.6-3 5.6-1.3zm-72.5-63.4c-6.7 4.1-12.4 12.9-16.3 25.2-4.2 13.3-3.7 22.1 1.4 25.5 3.9 2.5 11.1 1.6 15.8-2l3.7-2.8 3.4 3.3c4 3.9 9.1 4.3 15.3 1.1 7.5-3.8 20.4-20.5 18.9-24.5-1.3-3.2-4.4-1.7-8.1 4-4.9 7.4-12 14.4-14.6 14.4-3.6 0-2.4-5.9 5-24.1 4.5-11.2 6.6-17.7 6-18.3-.6-.6-2.7-.1-5.9 1.4l-5 2.3-4.1-3.6c-3.3-3-4.8-3.7-8.3-3.7-2.3 0-5.5.8-7.2 1.8zm11.9 9.5c2.7 1.9 2.3 5-1.9 15.7-5.6 14.4-14.2 21.5-16.9 13.9-2-5.8 7.9-27.6 13.6-29.9 3.1-1.2 3.2-1.2 5.2.3z"/></svg>